<svg width="143" height="204" viewBox="0 0 143 204" fill="none" xmlns="http://www.w3.org/2000/svg">
<path d="M2.23874 161.551L2.04687 161.701V161.945V202.09V202.59H2.54687H142H142.5V202.09V158.668V158.168H142H75.2338C93.649 145.257 109.021 130.687 121.343 114.456C134.162 97.8108 140.586 79.9548 140.586 60.8988C140.586 43.1261 135.078 28.6107 124.036 17.3985C112.97 6.16187 96.1373 0.590332 73.6406 0.590332C60.6318 0.590332 48.7997 3.15247 38.1532 8.28517C27.4857 13.2457 18.8472 21.1442 12.2384 31.9612C5.61832 42.6144 2.04921 56.0874 1.50028 72.352L1.48284 72.8689H2H53.9531H54.4639L54.453 72.3582C54.2716 63.8448 55.6364 57.5024 58.4706 53.2565L58.4706 53.2565L58.4757 53.2487C61.3029 48.8366 65.2479 46.6515 70.3594 46.6515C75.3484 46.6515 79.0136 48.2468 81.4493 51.3744L81.4544 51.3811L81.4598 51.3876C84.0958 54.5468 85.4453 58.9705 85.4453 64.7221C85.4453 74.2351 81.6717 84.3304 74.0549 95.0173C66.4233 105.543 56.9702 115.802 45.6919 125.795C34.4001 135.799 19.9165 147.718 2.23874 161.551Z" fill="white" fill-opacity="0.2" stroke="white"/>
</svg>
