<svg width="142" height="204" viewBox="0 0 142 204" fill="none" xmlns="http://www.w3.org/2000/svg">
<path d="M3.65119 63.5347L3.63272 64.0525H4.15087H55.5029H55.9705L56.0018 63.586C56.3559 58.3125 57.6811 53.9527 59.9525 50.4821C62.3535 46.9081 66.0366 45.1003 71.0967 45.1003C75.6477 45.1003 79.1801 46.4861 81.7564 49.2145L81.7619 49.2203L81.7676 49.226C84.3258 51.7659 85.6528 55.7059 85.6528 61.1501C85.6528 68.3314 83.2819 73.0083 78.6679 75.3852C74.1004 77.6517 68.452 78.7111 61.6997 78.5347L61.6997 78.5346H61.6867H52.5455H52.0455V79.0346V121.477V121.977H52.5455H61.9555C71.7846 121.977 78.7281 123.579 82.8967 126.683L82.8967 126.683L82.9046 126.688C87.2239 129.776 89.4168 134.588 89.4168 141.23C89.4168 146.468 87.9249 150.606 84.984 153.698L84.9788 153.703L84.9737 153.709C82.2203 156.784 78.3356 158.347 73.2476 158.347C66.5331 158.347 61.5829 156.421 58.2999 152.647C55.0067 148.861 53.497 143.488 53.8514 136.45L53.8778 135.925H53.352H2H1.48777L1.50015 136.437C2.04016 158.776 8.79531 175.482 21.8425 186.457L21.8483 186.462C35.0475 197.233 52.9162 202.59 75.3985 202.59C89.0786 202.59 100.897 200.178 110.838 195.333C120.774 190.49 128.378 183.755 133.63 175.123C138.881 166.494 141.5 156.525 141.5 145.234C141.5 133.852 138.768 124.269 133.275 116.516C127.837 108.842 119.722 103.001 108.968 98.9739V98.6131C116.46 96.0564 123.142 91.2291 129.017 84.1589L129.021 84.1542C135.027 76.746 138.005 66.9258 138.005 54.7437C138.005 44.5145 135.473 35.3462 130.402 27.2533C125.326 18.9756 117.81 12.5093 107.879 7.84722C98.1154 3.0016 86.2965 0.590332 72.441 0.590332C51.2072 0.590332 34.5825 6.04047 22.6344 17.0034C10.6804 27.7937 4.37159 43.329 3.65119 63.5347Z" fill="white" fill-opacity="0.2" stroke="white"/>
</svg>
