<svg width="75" height="75" viewBox="0 0 75 75" fill="none" xmlns="http://www.w3.org/2000/svg">
<path d="M33.7781 2.3366C36.0537 0.907966 38.9463 0.907966 41.2219 2.3366L45.1244 4.78657C46.2182 5.47327 47.4807 5.84397 48.7722 5.85765L53.3797 5.90645C56.0665 5.93491 58.4998 7.49874 59.6418 9.93088L61.6003 14.1018C62.1492 15.2708 63.0109 16.2652 64.0899 16.975L67.9396 19.507C70.1845 20.9835 71.3861 23.6147 71.0319 26.2782L70.4245 30.8457C70.2542 32.126 70.4415 33.4284 70.9655 34.6088L72.8352 38.8203C73.9254 41.276 73.5137 44.1391 71.7758 46.1883L68.7954 49.7024C67.96 50.6874 67.4134 51.8843 67.2161 53.1606L66.5121 57.7143C66.1015 60.3697 64.2073 62.5557 61.6374 63.34L57.2302 64.6849C55.995 65.0618 54.8881 65.7732 54.032 66.7403L50.9778 70.1905C49.1969 72.2023 46.4215 73.0173 43.8355 72.2876L39.4009 71.0363C38.1579 70.6856 36.8421 70.6856 35.5991 71.0363L31.1645 72.2876C28.5785 73.0173 25.8031 72.2023 24.0222 70.1905L20.968 66.7403C20.1119 65.7732 19.005 65.0618 17.7698 64.6849L13.3626 63.34C10.7927 62.5557 8.89848 60.3697 8.48794 57.7143L7.78392 53.1606C7.58659 51.8843 7.03999 50.6874 6.20461 49.7024L3.22419 46.1883C1.48624 44.1391 1.07459 41.276 2.16483 38.8203L4.03448 34.6088C4.55852 33.4284 4.74578 32.126 4.57553 30.8457L3.96811 26.2782C3.61391 23.6147 4.81552 20.9835 7.06038 19.507L10.9101 16.975C11.9891 16.2652 12.8508 15.2708 13.3997 14.1018L15.3582 9.93088C16.5002 7.49874 18.9335 5.93491 21.6203 5.90645L26.2278 5.85765C27.5193 5.84397 28.7818 5.47327 29.8756 4.78657L33.7781 2.3366Z" fill="url(#paint0_linear_384_52)"/>
<path d="M50.5 37C50.4993 33.685 49.1822 30.506 46.8381 28.1619C44.494 25.8178 41.315 24.5007 38 24.5V27C39.9776 27.0004 41.9107 27.587 43.5551 28.6857C45.1995 29.7843 46.4814 31.3457 47.2388 33.1725C47.7414 34.386 48.0001 35.6866 48 37H50.5ZM25.5 34.5V28.25C25.5 27.9185 25.6317 27.6005 25.8661 27.3661C26.1005 27.1317 26.4185 27 26.75 27H33C33.3315 27 33.6495 27.1317 33.8839 27.3661C34.1183 27.6005 34.25 27.9185 34.25 28.25V33.25C34.25 33.5815 34.1183 33.8995 33.8839 34.1339C33.6495 34.3683 33.3315 34.5 33 34.5H30.5C30.5 37.1522 31.5536 39.6957 33.4289 41.5711C35.3043 43.4464 37.8478 44.5 40.5 44.5V42C40.5 41.6685 40.6317 41.3505 40.8661 41.1161C41.1005 40.8817 41.4185 40.75 41.75 40.75H46.75C47.0815 40.75 47.3995 40.8817 47.6339 41.1161C47.8683 41.3505 48 41.6685 48 42V48.25C48 48.5815 47.8683 48.8995 47.6339 49.1339C47.3995 49.3683 47.0815 49.5 46.75 49.5H40.5C32.2163 49.5 25.5 42.7838 25.5 34.5Z" fill="white"/>
<path d="M44.9287 34.13C45.3061 35.0398 45.5002 36.0151 45.5 37H43.25C43.2502 36.3105 43.1145 35.6278 42.8507 34.9907C42.5869 34.3537 42.2002 33.7749 41.7127 33.2873C41.2251 32.7998 40.6463 32.4131 40.0093 32.1493C39.3722 31.8855 38.6895 31.7498 38 31.75V29.5C39.4833 29.5001 40.9333 29.94 42.1666 30.7641C43.3999 31.5883 44.3611 32.7596 44.9287 34.13Z" fill="white"/>
<defs>
<linearGradient id="paint0_linear_384_52" x1="79.5259" y1="75" x2="-1.0146" y2="72.2989" gradientUnits="userSpaceOnUse">
<stop stop-color="#FD297B"/>
<stop offset="1" stop-color="#FF5864"/>
</linearGradient>
</defs>
</svg>
