<svg width="191" height="52" viewBox="0 0 191 52" fill="none" xmlns="http://www.w3.org/2000/svg">
<rect width="191" height="52" rx="26" fill="url(#paint0_linear_19_1254)"/>
<path d="M46.2159 25.7C46.2159 24.464 46.4919 23.36 47.0439 22.388C47.6079 21.404 48.3699 20.642 49.3299 20.102C50.3019 19.55 51.3879 19.274 52.5879 19.274C53.9919 19.274 55.2219 19.634 56.2779 20.354C57.3339 21.074 58.0719 22.07 58.4919 23.342H55.5939C55.3059 22.742 54.8979 22.292 54.3699 21.992C53.8539 21.692 53.2539 21.542 52.5699 21.542C51.8379 21.542 51.1839 21.716 50.6079 22.064C50.0439 22.4 49.5999 22.88 49.2759 23.504C48.9639 24.128 48.8079 24.86 48.8079 25.7C48.8079 26.528 48.9639 27.26 49.2759 27.896C49.5999 28.52 50.0439 29.006 50.6079 29.354C51.1839 29.69 51.8379 29.858 52.5699 29.858C53.2539 29.858 53.8539 29.708 54.3699 29.408C54.8979 29.096 55.3059 28.64 55.5939 28.04H58.4919C58.0719 29.324 57.3339 30.326 56.2779 31.046C55.2339 31.754 54.0039 32.108 52.5879 32.108C51.3879 32.108 50.3019 31.838 49.3299 31.298C48.3699 30.746 47.6079 29.984 47.0439 29.012C46.4919 28.04 46.2159 26.936 46.2159 25.7ZM65.0723 32.162C64.1123 32.162 63.2483 31.952 62.4803 31.532C61.7123 31.1 61.1063 30.494 60.6623 29.714C60.2303 28.934 60.0143 28.034 60.0143 27.014C60.0143 25.994 60.2363 25.094 60.6803 24.314C61.1363 23.534 61.7543 22.934 62.5343 22.514C63.3143 22.082 64.1843 21.866 65.1443 21.866C66.1043 21.866 66.9743 22.082 67.7543 22.514C68.5343 22.934 69.1463 23.534 69.5903 24.314C70.0463 25.094 70.2743 25.994 70.2743 27.014C70.2743 28.034 70.0403 28.934 69.5723 29.714C69.1163 30.494 68.4923 31.1 67.7003 31.532C66.9203 31.952 66.0443 32.162 65.0723 32.162ZM65.0723 29.966C65.5283 29.966 65.9543 29.858 66.3503 29.642C66.7583 29.414 67.0823 29.078 67.3223 28.634C67.5623 28.19 67.6823 27.65 67.6823 27.014C67.6823 26.066 67.4303 25.34 66.9263 24.836C66.4343 24.32 65.8283 24.062 65.1083 24.062C64.3883 24.062 63.7823 24.32 63.2903 24.836C62.8103 25.34 62.5703 26.066 62.5703 27.014C62.5703 27.962 62.8043 28.694 63.2723 29.21C63.7523 29.714 64.3523 29.966 65.0723 29.966ZM77.6489 21.884C78.8369 21.884 79.7969 22.262 80.5289 23.018C81.2609 23.762 81.6269 24.806 81.6269 26.15V32H79.1069V26.492C79.1069 25.7 78.9089 25.094 78.5129 24.674C78.1169 24.242 77.5769 24.026 76.8929 24.026C76.1969 24.026 75.6449 24.242 75.2369 24.674C74.8409 25.094 74.6429 25.7 74.6429 26.492V32H72.1229V22.028H74.6429V23.27C74.9789 22.838 75.4049 22.502 75.9209 22.262C76.4489 22.01 77.0249 21.884 77.6489 21.884ZM86.9573 24.098V28.922C86.9573 29.258 87.0353 29.504 87.1913 29.66C87.3593 29.804 87.6353 29.876 88.0193 29.876H89.1893V32H87.6053C85.4813 32 84.4193 30.968 84.4193 28.904V24.098H83.2313V22.028H84.4193V19.562H86.9573V22.028H89.1893V24.098H86.9573ZM90.3538 26.978C90.3538 25.97 90.5518 25.076 90.9478 24.296C91.3558 23.516 91.9018 22.916 92.5858 22.496C93.2818 22.076 94.0558 21.866 94.9078 21.866C95.6518 21.866 96.2998 22.016 96.8518 22.316C97.4158 22.616 97.8658 22.994 98.2018 23.45V22.028H100.74V32H98.2018V30.542C97.8778 31.01 97.4278 31.4 96.8518 31.712C96.2878 32.012 95.6338 32.162 94.8898 32.162C94.0498 32.162 93.2818 31.946 92.5858 31.514C91.9018 31.082 91.3558 30.476 90.9478 29.696C90.5518 28.904 90.3538 27.998 90.3538 26.978ZM98.2018 27.014C98.2018 26.402 98.0818 25.88 97.8418 25.448C97.6018 25.004 97.2778 24.668 96.8698 24.44C96.4618 24.2 96.0238 24.08 95.5558 24.08C95.0878 24.08 94.6558 24.194 94.2598 24.422C93.8638 24.65 93.5398 24.986 93.2878 25.43C93.0478 25.862 92.9278 26.378 92.9278 26.978C92.9278 27.578 93.0478 28.106 93.2878 28.562C93.5398 29.006 93.8638 29.348 94.2598 29.588C94.6678 29.828 95.0998 29.948 95.5558 29.948C96.0238 29.948 96.4618 29.834 96.8698 29.606C97.2778 29.366 97.6018 29.03 97.8418 28.598C98.0818 28.154 98.2018 27.626 98.2018 27.014ZM102.553 27.014C102.553 25.982 102.763 25.082 103.183 24.314C103.603 23.534 104.185 22.934 104.929 22.514C105.673 22.082 106.525 21.866 107.485 21.866C108.721 21.866 109.741 22.178 110.545 22.802C111.361 23.414 111.907 24.278 112.183 25.394H109.465C109.321 24.962 109.075 24.626 108.727 24.386C108.391 24.134 107.971 24.008 107.467 24.008C106.747 24.008 106.177 24.272 105.757 24.8C105.337 25.316 105.127 26.054 105.127 27.014C105.127 27.962 105.337 28.7 105.757 29.228C106.177 29.744 106.747 30.002 107.467 30.002C108.487 30.002 109.153 29.546 109.465 28.634H112.183C111.907 29.714 111.361 30.572 110.545 31.208C109.729 31.844 108.709 32.162 107.485 32.162C106.525 32.162 105.673 31.952 104.929 31.532C104.185 31.1 103.603 30.5 103.183 29.732C102.763 28.952 102.553 28.046 102.553 27.014ZM116.963 24.098V28.922C116.963 29.258 117.041 29.504 117.197 29.66C117.365 29.804 117.641 29.876 118.025 29.876H119.195V32H117.611C115.487 32 114.425 30.968 114.425 28.904V24.098H113.237V22.028H114.425V19.562H116.963V22.028H119.195V24.098H116.963ZM127.781 19.436V27.212C127.781 28.064 128.003 28.718 128.447 29.174C128.891 29.618 129.515 29.84 130.319 29.84C131.135 29.84 131.765 29.618 132.209 29.174C132.653 28.718 132.875 28.064 132.875 27.212V19.436H135.413V27.194C135.413 28.262 135.179 29.168 134.711 29.912C134.255 30.644 133.637 31.196 132.857 31.568C132.089 31.94 131.231 32.126 130.283 32.126C129.347 32.126 128.495 31.94 127.727 31.568C126.971 31.196 126.371 30.644 125.927 29.912C125.483 29.168 125.261 28.262 125.261 27.194V19.436H127.781ZM141.663 32.162C140.847 32.162 140.115 32.018 139.467 31.73C138.819 31.43 138.303 31.028 137.919 30.524C137.547 30.02 137.343 29.462 137.307 28.85H139.845C139.893 29.234 140.079 29.552 140.403 29.804C140.739 30.056 141.153 30.182 141.645 30.182C142.125 30.182 142.497 30.086 142.761 29.894C143.037 29.702 143.175 29.456 143.175 29.156C143.175 28.832 143.007 28.592 142.671 28.436C142.347 28.268 141.825 28.088 141.105 27.896C140.361 27.716 139.749 27.53 139.269 27.338C138.801 27.146 138.393 26.852 138.045 26.456C137.709 26.06 137.541 25.526 137.541 24.854C137.541 24.302 137.697 23.798 138.009 23.342C138.333 22.886 138.789 22.526 139.377 22.262C139.977 21.998 140.679 21.866 141.483 21.866C142.671 21.866 143.619 22.166 144.327 22.766C145.035 23.354 145.425 24.152 145.497 25.16H143.085C143.049 24.764 142.881 24.452 142.581 24.224C142.293 23.984 141.903 23.864 141.411 23.864C140.955 23.864 140.601 23.948 140.349 24.116C140.109 24.284 139.989 24.518 139.989 24.818C139.989 25.154 140.157 25.412 140.493 25.592C140.829 25.76 141.351 25.934 142.059 26.114C142.779 26.294 143.373 26.48 143.841 26.672C144.309 26.864 144.711 27.164 145.047 27.572C145.395 27.968 145.575 28.496 145.587 29.156C145.587 29.732 145.425 30.248 145.101 30.704C144.789 31.16 144.333 31.52 143.733 31.784C143.145 32.036 142.455 32.162 141.663 32.162Z" fill="white"/>
<defs>
<linearGradient id="paint0_linear_19_1254" x1="202.526" y1="52" x2="0.254703" y2="27.0837" gradientUnits="userSpaceOnUse">
<stop stop-color="#FD297B"/>
<stop offset="1" stop-color="#FF5864"/>
</linearGradient>
</defs>
</svg>
