<svg width="1235" height="438" viewBox="0 0 1235 438" fill="none" xmlns="http://www.w3.org/2000/svg">
<rect x="15" width="1220" height="381" rx="20" fill="url(#paint0_linear_239_231)"/>
<g filter="url(#filter0_d_239_231)">
<path d="M68.662 319.848C65.9844 323.696 66.9328 328.986 70.7804 331.663C66.9328 328.986 61.6431 329.934 58.9655 333.782C61.6431 329.934 60.6946 324.644 56.847 321.967C60.6946 324.644 65.9844 323.696 68.662 319.848Z" fill="white"/>
</g>
<mask id="mask0_239_231" style="mask-type:alpha" maskUnits="userSpaceOnUse" x="15" y="0" width="1220" height="381">
<rect x="15" width="1220" height="381" rx="20" fill="url(#paint1_linear_239_231)"/>
</mask>
<g mask="url(#mask0_239_231)">
<rect x="-81.1249" y="279.884" width="342.475" height="63.4786" rx="31.7393" transform="rotate(-45.0874 -81.1249 279.884)" fill="white" fill-opacity="0.08"/>
<rect x="-105.664" y="393.872" width="556.172" height="63.4786" rx="31.7393" transform="rotate(-45.0874 -105.664 393.872)" fill="white" fill-opacity="0.08"/>
<rect x="-104.609" y="482.245" width="658.295" height="63.4786" rx="31.7393" transform="rotate(-45.0874 -104.609 482.245)" fill="white" fill-opacity="0.08"/>
<rect x="10.8805" y="455.863" width="496.816" height="63.4786" rx="31.7393" transform="rotate(-45.0874 10.8805 455.863)" fill="white" fill-opacity="0.08"/>
<rect x="30.6454" y="526.232" width="533.746" height="63.4786" rx="31.7393" transform="rotate(-45.0874 30.6454 526.232)" fill="white" fill-opacity="0.08"/>
<rect x="131.144" y="515.727" width="366.653" height="63.4786" rx="31.7393" transform="rotate(-45.0874 131.144 515.727)" fill="white" fill-opacity="0.08"/>
</g>
<defs>
<filter id="filter0_d_239_231" x="0.847046" y="295.848" width="141.933" height="141.933" filterUnits="userSpaceOnUse" color-interpolation-filters="sRGB">
<feFlood flood-opacity="0" result="BackgroundImageFix"/>
<feColorMatrix in="SourceAlpha" type="matrix" values="0 0 0 0 0 0 0 0 0 0 0 0 0 0 0 0 0 0 127 0" result="hardAlpha"/>
<feMorphology radius="16" operator="erode" in="SourceAlpha" result="effect1_dropShadow_239_231"/>
<feOffset dx="8" dy="40"/>
<feGaussianBlur stdDeviation="40"/>
<feComposite in2="hardAlpha" operator="out"/>
<feColorMatrix type="matrix" values="0 0 0 0 0 0 0 0 0 0 0 0 0 0 0 0 0 0 0.5 0"/>
<feBlend mode="normal" in2="BackgroundImageFix" result="effect1_dropShadow_239_231"/>
<feBlend mode="normal" in="SourceGraphic" in2="effect1_dropShadow_239_231" result="shape"/>
</filter>
<linearGradient id="paint0_linear_239_231" x1="1308.62" y1="381" x2="11.9753" y2="241.756" gradientUnits="userSpaceOnUse">
<stop stop-color="#FD297B"/>
<stop offset="1" stop-color="#FF5864"/>
</linearGradient>
<linearGradient id="paint1_linear_239_231" x1="38.6434" y1="91.7222" x2="1252.1" y2="223.517" gradientUnits="userSpaceOnUse">
<stop offset="1" stop-color="#4B2AAD"/>
</linearGradient>
</defs>
</svg>
