<svg width="75" height="75" viewBox="0 0 75 75" fill="none" xmlns="http://www.w3.org/2000/svg">
<path d="M33.7781 2.3366C36.0537 0.907966 38.9463 0.907966 41.2219 2.3366L45.1244 4.78657C46.2182 5.47327 47.4807 5.84397 48.7722 5.85765L53.3797 5.90645C56.0665 5.93491 58.4998 7.49874 59.6418 9.93088L61.6003 14.1018C62.1492 15.2708 63.0109 16.2652 64.0899 16.975L67.9396 19.507C70.1845 20.9835 71.3861 23.6147 71.0319 26.2782L70.4245 30.8457C70.2542 32.126 70.4415 33.4284 70.9655 34.6088L72.8352 38.8203C73.9254 41.276 73.5137 44.1391 71.7758 46.1883L68.7954 49.7024C67.96 50.6874 67.4134 51.8843 67.2161 53.1606L66.5121 57.7143C66.1015 60.3697 64.2073 62.5557 61.6374 63.34L57.2302 64.6849C55.995 65.0618 54.8881 65.7732 54.032 66.7403L50.9778 70.1905C49.1969 72.2023 46.4215 73.0173 43.8355 72.2876L39.4009 71.0363C38.1579 70.6856 36.8421 70.6856 35.5991 71.0363L31.1645 72.2876C28.5785 73.0173 25.8031 72.2023 24.0222 70.1905L20.968 66.7403C20.1119 65.7732 19.005 65.0618 17.7698 64.6849L13.3626 63.34C10.7927 62.5557 8.89848 60.3697 8.48794 57.7143L7.78392 53.1606C7.58659 51.8843 7.03999 50.6874 6.20461 49.7024L3.22419 46.1883C1.48624 44.1391 1.07459 41.276 2.16483 38.8203L4.03448 34.6088C4.55852 33.4284 4.74578 32.126 4.57553 30.8457L3.96811 26.2782C3.61391 23.6147 4.81552 20.9835 7.06038 19.507L10.9101 16.975C11.9891 16.2652 12.8508 15.2708 13.3997 14.1018L15.3582 9.93088C16.5002 7.49874 18.9335 5.93491 21.6203 5.90645L26.2278 5.85765C27.5193 5.84397 28.7818 5.47327 29.8756 4.78657L33.7781 2.3366Z" fill="url(#paint0_linear_384_51)"/>
<g clip-path="url(#clip0_384_51)">
<path d="M45.111 31.9689C44.1582 31.3692 43.3731 30.5377 42.829 29.5521C42.285 28.5665 41.9997 27.4591 41.9999 26.3333H25.4843C25.3248 26.3358 25.1663 26.3597 25.0132 26.4044L37.8576 39.1955L45.111 31.9689Z" fill="white"/>
<path d="M48.6664 33C48.0649 32.9948 47.4669 32.9081 46.8887 32.7422L39.1464 40.4578C38.8134 40.7889 38.3628 40.9748 37.8931 40.9748C37.4234 40.9748 36.9729 40.7889 36.6398 40.4578L23.7776 27.6667C23.7381 27.8116 23.7172 27.9609 23.7153 28.1111V45.8889C23.7153 46.3604 23.9026 46.8126 24.236 47.146C24.5694 47.4794 25.0216 47.6667 25.4931 47.6667H50.382C50.8535 47.6667 51.3057 47.4794 51.6391 47.146C51.9725 46.8126 52.1598 46.3604 52.1598 45.8889V32.0134C51.11 32.6612 49.9001 33.0029 48.6664 33ZM26.7109 45.8889H25.4753V44.6178L31.9376 38.2089L33.1909 39.4622L26.7109 45.8889ZM50.3642 45.8889H49.1198L42.6398 39.4622L43.8931 38.2089L50.3553 44.6178L50.3642 45.8889Z" fill="white"/>
<path d="M48.6666 30.7778C51.1212 30.7778 53.1111 28.788 53.1111 26.3334C53.1111 23.8788 51.1212 21.8889 48.6666 21.8889C46.212 21.8889 44.2222 23.8788 44.2222 26.3334C44.2222 28.788 46.212 30.7778 48.6666 30.7778Z" fill="white"/>
</g>
<defs>
<linearGradient id="paint0_linear_384_51" x1="79.5259" y1="75" x2="-1.0146" y2="72.2989" gradientUnits="userSpaceOnUse">
<stop stop-color="#FD297B"/>
<stop offset="1" stop-color="#FF5864"/>
</linearGradient>
<clipPath id="clip0_384_51">
<rect width="32" height="32" fill="white" transform="translate(22 21)"/>
</clipPath>
</defs>
</svg>
