<svg width="36" height="36" viewBox="0 0 36 36" fill="none" xmlns="http://www.w3.org/2000/svg">
<path d="M3.00002 18C3.00077 14.7114 4.08224 11.5142 6.07799 8.90038C8.07374 6.2866 10.8732 4.40111 14.0454 3.5341C17.2177 2.6671 20.5869 2.86662 23.6347 4.10197C26.6825 5.33732 29.2398 7.54003 30.9131 10.3711C32.5864 13.2022 33.283 16.5047 32.8956 19.7704C32.5082 23.0361 31.0583 26.084 28.7691 28.445C26.4799 30.806 23.4782 32.3493 20.226 32.8373C16.9738 33.3254 13.6514 32.7311 10.77 31.146L4.93802 32.922C4.67789 33.0012 4.40111 33.0083 4.1373 32.9423C3.87348 32.8764 3.63254 32.74 3.44026 32.5477C3.24798 32.3555 3.11158 32.1145 3.04566 31.8507C2.97974 31.5869 2.98678 31.3101 3.06602 31.05L4.84202 25.209C3.62988 22.9998 2.99623 20.5199 3.00002 18ZM12 16.5C12 16.8978 12.1581 17.2793 12.4394 17.5606C12.7207 17.842 13.1022 18 13.5 18H22.5C22.8978 18 23.2794 17.842 23.5607 17.5606C23.842 17.2793 24 16.8978 24 16.5C24 16.1022 23.842 15.7206 23.5607 15.4393C23.2794 15.158 22.8978 15 22.5 15H13.5C13.1022 15 12.7207 15.158 12.4394 15.4393C12.1581 15.7206 12 16.1022 12 16.5ZM13.5 21C13.1022 21 12.7207 21.158 12.4394 21.4393C12.1581 21.7206 12 22.1022 12 22.5C12 22.8978 12.1581 23.2793 12.4394 23.5606C12.7207 23.842 13.1022 24 13.5 24H19.5C19.8978 24 20.2794 23.842 20.5607 23.5606C20.842 23.2793 21 22.8978 21 22.5C21 22.1022 20.842 21.7206 20.5607 21.4393C20.2794 21.158 19.8978 21 19.5 21H13.5Z" fill="url(#paint0_linear_33_3227)"/>
<defs>
<linearGradient id="paint0_linear_33_3227" x1="34.8104" y1="33.0034" x2="2.59416" y2="31.923" gradientUnits="userSpaceOnUse">
<stop stop-color="#FD297B"/>
<stop offset="1" stop-color="#FF5864"/>
</linearGradient>
</defs>
</svg>
