<svg width="199" height="42" viewBox="0 0 199 42" fill="none" xmlns="http://www.w3.org/2000/svg">
<path d="M199 11.8848L189.03 35.604H184.699L188.187 27.5813L181.734 11.8848H186.298L190.454 23.1339L194.669 11.8848H199Z" fill="white"/>
<path d="M162.848 19.8775C162.848 18.2497 163.167 16.806 163.807 15.5464C164.466 14.2869 165.347 13.3179 166.452 12.6397C167.576 11.9614 168.826 11.6223 170.202 11.6223C171.403 11.6223 172.45 11.8645 173.341 12.349C174.252 12.8335 174.979 13.4439 175.521 14.1803V11.8839H179.62V27.9874H175.521V25.6329C174.998 26.3887 174.271 27.0185 173.341 27.5223C172.43 28.0068 171.374 28.249 170.173 28.249C168.816 28.249 167.576 27.9002 166.452 27.2026C165.347 26.505 164.466 25.5263 163.807 24.2667C163.167 22.9878 162.848 21.5247 162.848 19.8775ZM175.521 19.9357C175.521 18.9474 175.327 18.1044 174.94 17.4068C174.552 16.6898 174.029 16.1472 173.37 15.779C172.711 15.3914 172.004 15.1976 171.248 15.1976C170.492 15.1976 169.795 15.3817 169.155 15.7499C168.516 16.1181 167.993 16.6607 167.586 17.3777C167.198 18.0753 167.004 18.9086 167.004 19.8775C167.004 20.8465 167.198 21.6991 167.586 22.4355C167.993 23.1525 168.516 23.7048 169.155 24.0923C169.814 24.4799 170.512 24.6737 171.248 24.6737C172.004 24.6737 172.711 24.4896 173.37 24.1214C174.029 23.7338 174.552 23.1912 174.94 22.4936C175.327 21.7766 175.521 20.924 175.521 19.9357Z" fill="white"/>
<path d="M159.873 6.47827V27.9883H155.804V6.47827H159.873Z" fill="white"/>
<path d="M152.915 13.9764C152.915 15.0616 152.653 16.0789 152.13 17.0285C151.626 17.978 150.822 18.7435 149.717 19.3248C148.632 19.9062 147.256 20.1968 145.59 20.1968H142.189V27.987H138.119V7.69775H145.59C147.159 7.69775 148.496 7.96905 149.601 8.51165C150.706 9.05424 151.529 9.80031 152.072 10.7499C152.634 11.6994 152.915 12.7749 152.915 13.9764ZM145.415 16.9122C146.539 16.9122 147.373 16.6603 147.915 16.1564C148.458 15.6332 148.729 14.9065 148.729 13.9764C148.729 11.9998 147.624 11.0115 145.415 11.0115H142.189V16.9122H145.415Z" fill="white"/>
<path d="M128.223 19.5869C128.223 20.1682 128.184 20.6914 128.106 21.1565H116.334C116.431 22.3192 116.838 23.23 117.555 23.8889C118.272 24.5477 119.154 24.8772 120.2 24.8772C121.711 24.8772 122.787 24.228 123.426 22.9296H127.816C127.351 24.4799 126.459 25.7589 125.141 26.7666C123.824 27.7549 122.206 28.249 120.287 28.249C118.737 28.249 117.342 27.9099 116.101 27.2317C114.881 26.534 113.921 25.5554 113.224 24.2958C112.545 23.0362 112.206 21.5828 112.206 19.9357C112.206 18.2691 112.545 16.806 113.224 15.5464C113.902 14.2869 114.852 13.3179 116.072 12.6397C117.293 11.9614 118.698 11.6223 120.287 11.6223C121.818 11.6223 123.184 11.9517 124.386 12.6106C125.607 13.2695 126.546 14.2093 127.205 15.4302C127.884 16.6316 128.223 18.0172 128.223 19.5869ZM124.008 18.4241C123.988 17.3777 123.611 16.5444 122.874 15.9243C122.138 15.2848 121.237 14.9651 120.171 14.9651C119.163 14.9651 118.311 15.2752 117.613 15.8953C116.935 16.496 116.518 17.339 116.363 18.4241H124.008Z" fill="white"/>
<path d="M103.575 28.249C102.258 28.249 101.076 28.0165 100.029 27.5514C98.9826 27.0669 98.1494 26.4178 97.5293 25.6039C96.9285 24.79 96.5991 23.8889 96.541 22.9006H100.639C100.717 23.5207 101.017 24.0342 101.541 24.4412C102.083 24.8481 102.752 25.0516 103.546 25.0516C104.321 25.0516 104.922 24.8965 105.348 24.5865C105.794 24.2764 106.017 23.8792 106.017 23.3947C106.017 22.8715 105.746 22.4839 105.203 22.232C104.68 21.9607 103.837 21.67 102.674 21.36C101.473 21.0693 100.484 20.7689 99.7093 20.4589C98.9536 20.1488 98.2947 19.6741 97.7327 19.0346C97.1901 18.3951 96.9188 17.5327 96.9188 16.4475C96.9188 15.5561 97.1708 14.7422 97.6746 14.0059C98.1978 13.2695 98.9342 12.6881 99.8837 12.2618C100.853 11.8355 101.986 11.6223 103.285 11.6223C105.203 11.6223 106.734 12.1068 107.877 13.0757C109.021 14.0252 109.65 15.3139 109.767 16.9417H105.872C105.814 16.3022 105.542 15.7984 105.058 15.4302C104.593 15.0426 103.963 14.8488 103.168 14.8488C102.432 14.8488 101.86 14.9845 101.453 15.2558C101.066 15.5271 100.872 15.9049 100.872 16.3894C100.872 16.932 101.143 17.3486 101.686 17.6393C102.229 17.9106 103.071 18.1916 104.215 18.4823C105.378 18.773 106.337 19.0733 107.093 19.3834C107.848 19.6934 108.497 20.1779 109.04 20.8368C109.602 21.4763 109.893 22.3289 109.912 23.3947C109.912 24.3249 109.65 25.1582 109.127 25.8945C108.623 26.6309 107.887 27.2123 106.918 27.6386C105.969 28.0455 104.854 28.249 103.575 28.249Z" fill="white"/>
<path d="M93.3925 6.47827V27.9883H89.323V6.47827H93.3925Z" fill="white"/>
<path d="M85.3079 11.8848V27.9882H81.2094V25.9535C80.6862 26.6511 79.9982 27.2034 79.1456 27.6104C78.3123 27.9979 77.4015 28.1917 76.4132 28.1917C75.1536 28.1917 74.0394 27.9301 73.0704 27.4069C72.1015 26.8643 71.3361 26.0795 70.7741 25.0524C70.2315 24.006 69.9602 22.7658 69.9602 21.3318V11.8848H74.0297V20.7504C74.0297 22.0294 74.3494 23.0177 74.9889 23.7153C75.6284 24.3935 76.5004 24.7327 77.605 24.7327C78.7289 24.7327 79.6107 24.3935 80.2502 23.7153C80.8896 23.0177 81.2094 22.0294 81.2094 20.7504V11.8848H85.3079Z" fill="white"/>
<path d="M67.2162 13.9764C67.2162 15.0616 66.9545 16.0789 66.4313 17.0285C65.9275 17.978 65.1233 18.7435 64.0187 19.3248C62.9335 19.9062 61.5576 20.1968 59.8911 20.1968H56.4902V27.987H52.4207V7.69775H59.8911C61.4608 7.69775 62.7979 7.96905 63.9024 8.51165C65.007 9.05424 65.8306 9.80031 66.3732 10.7499C66.9352 11.6994 67.2162 12.7749 67.2162 13.9764ZM59.7167 16.9122C60.8406 16.9122 61.6739 16.6603 62.2165 16.1564C62.7591 15.6332 63.0304 14.9065 63.0304 13.9764C63.0304 11.9998 61.9258 11.0115 59.7167 11.0115H56.4902V16.9122H59.7167Z" fill="white"/>
<path d="M20.3784 13.5254C18.8578 11.4769 16.6716 10.0396 14.2064 9.46757C11.7412 8.89555 9.15583 9.2257 6.9076 10.3996V6.98759L1 1V20.1143C1.00143 22.1482 1.56268 24.1414 2.62061 25.8697C3.67854 27.5979 5.19117 28.9926 6.98837 29.8969C8.78557 30.8012 10.796 31.1792 12.7936 30.9884C14.7911 30.7976 16.6966 30.0455 18.2955 28.8169" stroke="url(#paint0_linear_26_402)" stroke-width="1.4" stroke-linecap="round" stroke-linejoin="round"/>
<path d="M18.8181 34.7187V20.0491C18.8017 17.6003 19.5679 15.2132 20.9998 13.2522C22.4317 11.2911 24.4506 9.8637 26.7485 9.1878C29.0464 8.5119 31.497 8.62459 33.7265 9.5087C35.956 10.3928 37.842 11.9998 39.0965 14.0844C40.3511 16.169 40.9054 18.6168 40.6749 21.0543C40.4444 23.4917 39.4417 25.785 37.8198 27.5842C36.198 29.3834 34.046 30.5897 31.6923 31.0191C29.3386 31.4484 26.9124 31.0772 24.7839 29.962V40.7264L18.8181 34.7187Z" fill="url(#paint1_linear_26_402)" stroke="url(#paint2_linear_26_402)" stroke-width="1.4" stroke-linecap="round" stroke-linejoin="round"/>
<path d="M37.8189 13.0205L31.4386 19.4103L27.1851 18.8293C27.0934 18.0277 27.2983 17.2489 27.185 16.5059C27.1562 16.3171 27.1645 16.6318 27.174 16.8012C27.1775 16.8144 27.1812 16.8276 27.1849 16.8408C27.1849 16.9437 27.1792 16.8944 27.174 16.8012C26.3724 13.8126 29.5245 9.17797 34.0838 9.77513C34.4478 9.8228 34.7989 9.94065 35.1383 10.0805C35.7312 10.3249 36.2754 10.6735 36.7452 11.1099L37.2867 11.613L37.8189 13.0205Z" fill="url(#paint3_linear_26_402)"/>
<path d="M39.4584 26.0608C39.9385 21.5011 35.9007 20.0352 33.9806 20.0352L32.9742 21.3604L35.8978 29.4844L39.4584 26.0608Z" fill="url(#paint4_linear_26_402)"/>
<path d="M18.5396 23.9408C20.734 27.8399 26.7682 25.8904 26.7682 23.9408C27.134 23.6159 28.4152 19.5543 22.9282 20.5291C17.3899 21.513 18.5397 21.9912 18.5396 23.9408Z" fill="url(#paint5_linear_26_402)"/>
<path d="M33.9432 20.3779L30.5524 18.44L27.1607 16.5022V24.2536L30.5524 22.3157L33.9432 20.3779Z" fill="#0E1015" stroke="#0E1015" stroke-width="1.4" stroke-linecap="round" stroke-linejoin="round"/>
<path d="M13.2304 22.1253L16.7418 20.051L13.2304 17.9746L9.72009 15.9004V24.1995L13.2304 22.1253Z" fill="#FD297B" stroke="url(#paint6_linear_26_402)" stroke-width="1.4" stroke-linecap="round" stroke-linejoin="round"/>
<defs>
<linearGradient id="paint0_linear_26_402" x1="21.5478" y1="31.0366" x2="0.724191" y2="30.586" gradientUnits="userSpaceOnUse">
<stop stop-color="#FD297B"/>
<stop offset="1" stop-color="#FF5864"/>
</linearGradient>
<linearGradient id="paint1_linear_26_402" x1="42.048" y1="40.7264" x2="18.5074" y2="40.1854" gradientUnits="userSpaceOnUse">
<stop stop-color="#FD297B"/>
<stop offset="1" stop-color="#FF5864"/>
</linearGradient>
<linearGradient id="paint2_linear_26_402" x1="42.048" y1="40.7264" x2="18.5074" y2="40.1854" gradientUnits="userSpaceOnUse">
<stop stop-color="#FD297B"/>
<stop offset="1" stop-color="#FF5864"/>
</linearGradient>
<linearGradient id="paint3_linear_26_402" x1="22.9311" y1="6.04995" x2="34.3414" y2="14.9271" gradientUnits="userSpaceOnUse">
<stop stop-color="#A8092B"/>
<stop offset="1" stop-color="#A8092B" stop-opacity="0"/>
</linearGradient>
<linearGradient id="paint4_linear_26_402" x1="40.1748" y1="15.0909" x2="33.6638" y2="22.5688" gradientUnits="userSpaceOnUse">
<stop stop-color="#A8092B"/>
<stop offset="1" stop-color="#A8092B" stop-opacity="0"/>
</linearGradient>
<linearGradient id="paint5_linear_26_402" x1="25.6724" y1="34.1759" x2="23.9318" y2="21.4418" gradientUnits="userSpaceOnUse">
<stop stop-color="#A8092B"/>
<stop offset="1" stop-color="#A8092B" stop-opacity="0"/>
</linearGradient>
<linearGradient id="paint6_linear_26_402" x1="17.1656" y1="24.1995" x2="9.62269" y2="23.9855" gradientUnits="userSpaceOnUse">
<stop stop-color="#FF5864"/>
<stop offset="0.3125" stop-color="#FD297B"/>
</linearGradient>
</defs>
</svg>
