<svg width="42" height="42" viewBox="0 0 42 42" fill="none" xmlns="http://www.w3.org/2000/svg">
<path d="M22.8876 4C15.8256 4 10.1311 9.57222 9.77515 16.58L6.1786 21.3589C5.72903 21.9444 6.1786 22.8889 6.96534 22.8889H9.77515V28.5556C9.77515 30.6522 11.4423 32.3333 13.5216 32.3333H15.3948V38H28.5072V29.1411C32.9467 27.0256 36 22.5111 36 17.2222C36 9.93111 30.1556 4 22.8876 4ZM30.3804 15.0122C30.3804 17.9211 27.8328 20.2444 23.974 23.7767L22.8876 24.7778L21.8011 23.7767C17.9423 20.2444 15.3948 17.9211 15.3948 15.0122C15.3948 12.7456 17.193 10.8756 19.4409 10.8567H19.5158C20.8083 10.8567 22.0446 11.4422 22.8876 12.4244C23.7305 11.4422 24.9668 10.8567 26.2593 10.8567C28.5072 10.8378 30.3804 12.67 30.3804 14.9367V15.0122Z" fill="url(#paint0_linear_33_3223)"/>
<defs>
<linearGradient id="paint0_linear_33_3223" x1="37.8103" y1="38" x2="5.58614" y2="37.0465" gradientUnits="userSpaceOnUse">
<stop stop-color="#FD297B"/>
<stop offset="1" stop-color="#FF5864"/>
</linearGradient>
</defs>
</svg>
