<svg width="36" height="36" viewBox="0 0 36 36" fill="none" xmlns="http://www.w3.org/2000/svg">
<path opacity="0.1" fill-rule="evenodd" clip-rule="evenodd" d="M0.328125 18.0007C0.328125 8.24362 8.23776 0.333984 17.9948 0.333984C27.7518 0.333984 35.6615 8.24362 35.6615 18.0007C35.6615 27.7577 27.7518 35.6673 17.9948 35.6673C8.23776 35.6673 0.328125 27.7577 0.328125 18.0007Z" fill="url(#paint0_linear_19_1813)"/>
<path fill-rule="evenodd" clip-rule="evenodd" d="M17.9957 8.57837C15.4367 8.57837 15.1156 8.58956 14.1105 8.6353C13.1075 8.68123 12.4228 8.84003 11.8237 9.07304C11.204 9.3137 10.6783 9.63563 10.1545 10.1596C9.63042 10.6833 9.30849 11.209 9.06705 11.8285C8.83345 12.4278 8.67445 13.1127 8.6293 14.1154C8.58435 15.1204 8.57257 15.4417 8.57257 18.0007C8.57257 20.5596 8.58396 20.8798 8.6295 21.8848C8.67563 22.8879 8.83443 23.5726 9.06724 24.1717C9.3081 24.7914 9.63003 25.3171 10.154 25.8408C10.6775 26.365 11.2032 26.6877 11.8225 26.9283C12.422 27.1613 13.1069 27.3201 14.1098 27.3661C15.1148 27.4118 15.4358 27.423 17.9945 27.423C20.5536 27.423 20.8738 27.4118 21.8789 27.3661C22.8819 27.3201 23.5674 27.1613 24.1669 26.9283C24.7864 26.6877 25.3113 26.365 25.8349 25.8408C26.359 25.3171 26.6809 24.7914 26.9223 24.1719C27.154 23.5726 27.313 22.8877 27.3601 21.885C27.4052 20.88 27.417 20.5596 27.417 18.0007C27.417 15.4417 27.4052 15.1206 27.3601 14.1156C27.313 13.1125 27.154 12.4278 26.9223 11.8287C26.6809 11.209 26.359 10.6833 25.8349 10.1596C25.3107 9.63544 24.7866 9.31351 24.1663 9.07304C23.5656 8.84003 22.8806 8.68123 21.8775 8.6353C20.8724 8.58956 20.5525 8.57837 17.9927 8.57837H17.9957ZM17.1504 10.2763C17.4012 10.2759 17.6812 10.2763 17.9956 10.2763C20.5114 10.2763 20.8096 10.2854 21.803 10.3305C22.7217 10.3725 23.2203 10.526 23.5524 10.655C23.9922 10.8258 24.3056 11.0299 24.6352 11.3597C24.965 11.6895 25.1692 12.0036 25.3403 12.4433C25.4693 12.775 25.623 13.2736 25.6648 14.1923C25.71 15.1855 25.7198 15.4839 25.7198 17.9985C25.7198 20.5131 25.71 20.8115 25.6648 21.8047C25.6228 22.7234 25.4693 23.222 25.3403 23.5537C25.1696 23.9935 24.965 24.3066 24.6352 24.6361C24.3054 24.9659 23.9924 25.1701 23.5524 25.3408C23.2207 25.4704 22.7217 25.6235 21.803 25.6655C20.8098 25.7107 20.5114 25.7205 17.9956 25.7205C15.4797 25.7205 15.1815 25.7107 14.1882 25.6655C13.2696 25.6231 12.771 25.4696 12.4386 25.3407C11.9989 25.1699 11.6848 24.9657 11.3551 24.6359C11.0253 24.3062 10.8211 23.9929 10.65 23.553C10.521 23.2212 10.3673 22.7226 10.3255 21.8039C10.2803 20.8107 10.2713 20.5123 10.2713 17.9961C10.2713 15.48 10.2803 15.1832 10.3255 14.1899C10.3675 13.2712 10.521 12.7726 10.65 12.4405C10.8207 12.0008 11.0253 11.6867 11.3551 11.3569C11.6848 11.0272 11.9989 10.823 12.4386 10.6518C12.7708 10.5223 13.2696 10.3692 14.1882 10.327C15.0574 10.2877 15.3943 10.2759 17.1504 10.274V10.2763ZM23.0252 11.8408C22.401 11.8408 21.8945 12.3467 21.8945 12.9711C21.8945 13.5953 22.401 14.1018 23.0252 14.1018C23.6494 14.1018 24.1559 13.5953 24.1559 12.9711C24.1559 12.3469 23.6494 11.8408 23.0252 11.8408ZM17.9957 13.1619C15.3235 13.1619 13.1569 15.3285 13.1569 18.0007C13.1569 20.6729 15.3235 22.8384 17.9957 22.8384C20.6679 22.8384 22.8337 20.6729 22.8337 18.0007C22.8337 15.3285 20.6679 13.1619 17.9957 13.1619ZM17.9957 14.8599C19.7301 14.8599 21.1364 16.266 21.1364 18.0007C21.1364 19.7352 19.7301 21.1414 17.9957 21.1414C16.261 21.1414 14.8549 19.7352 14.8549 18.0007C14.8549 16.266 16.261 14.8599 17.9957 14.8599Z" fill="url(#paint1_linear_19_1813)"/>
<defs>
<linearGradient id="paint0_linear_19_1813" x1="37.7936" y1="35.6673" x2="-0.149866" y2="34.3948" gradientUnits="userSpaceOnUse">
<stop stop-color="#FD297B"/>
<stop offset="1" stop-color="#FF5864"/>
</linearGradient>
<linearGradient id="paint1_linear_19_1813" x1="28.5542" y1="27.423" x2="8.31764" y2="26.7444" gradientUnits="userSpaceOnUse">
<stop stop-color="#FD297B"/>
<stop offset="1" stop-color="#FF5864"/>
</linearGradient>
</defs>
</svg>
