<svg width="36" height="36" viewBox="0 0 36 36" fill="none" xmlns="http://www.w3.org/2000/svg">
<path d="M26.3076 0C23.249 0 20.7691 2.48262 20.7691 5.53846C20.7691 9.22846 25.6153 14.2698 25.6153 19.3417H26.9999C27.0013 14.2698 31.8461 9.37385 31.8461 5.53846C31.8461 2.48262 29.3662 0 26.3076 0ZM26.3076 2.68338C26.6827 2.68357 27.0541 2.75763 27.4006 2.90135C27.7471 3.04507 28.0619 3.25563 28.327 3.521C28.5921 3.78638 28.8024 4.10137 28.9458 4.448C29.0892 4.79464 29.1629 5.16611 29.1627 5.54123C29.1625 5.91635 29.0884 6.28775 28.9447 6.63425C28.801 6.98074 28.5904 7.29553 28.3251 7.56065C28.0597 7.82577 27.7447 8.03602 27.3981 8.1794C27.0514 8.32279 26.6799 8.39649 26.3048 8.39631C25.5471 8.39594 24.8205 8.09457 24.2849 7.55849C23.7494 7.02241 23.4487 6.29553 23.4491 5.53777C23.4494 4.78 23.7508 4.05342 24.2869 3.51786C24.823 2.9823 25.5498 2.68302 26.3076 2.68338ZM17.9999 2.76923C8.83791 2.76923 1.38452 10.2226 1.38452 19.3846C1.38452 28.5466 8.83791 36 17.9999 36C27.1619 36 34.6153 28.5466 34.6153 19.3846C34.6153 16.6015 33.9258 13.9902 32.7114 11.682C32.5273 12.0475 32.3418 12.3951 32.1493 12.7648C31.7851 13.4682 31.4016 14.1785 31.0665 14.8846C31.4127 15.8746 31.6508 16.9214 31.7588 18H29.9422C29.8425 18.4638 29.7691 18.9 29.7691 19.3417V20.7692H31.7602C31.5723 22.7213 30.967 24.6101 29.9851 26.3077H25.9199C26.2245 25.0089 26.4004 23.5731 26.525 22.1109H23.7973C23.6683 23.5276 23.4228 24.9313 23.0634 26.3077H12.9364C12.4684 24.4956 12.1927 22.6392 12.1139 20.7692H22.8447V19.3417C22.834 18.8896 22.7759 18.44 22.6716 18H12.1153C12.1941 16.1301 12.4698 14.2737 12.9378 12.4615H20.3371C19.8569 11.5546 19.4089 10.631 18.9941 9.69231H13.889C15.0341 7.07954 16.5474 5.53846 17.9999 5.53846C17.9999 4.57615 18.173 3.672 18.4762 2.81215C18.317 2.80662 18.1605 2.76923 17.9999 2.76923ZM12.2884 6.79292C11.737 7.71384 11.2734 8.68458 10.9038 9.69231H8.13452C9.32888 8.47841 10.7371 7.49547 12.2884 6.79292ZM6.01468 12.4615H10.0799C9.66112 14.2804 9.41496 16.1348 9.34468 18H4.2396C4.42684 16.0478 5.03225 14.1589 6.01468 12.4615ZM4.2396 20.7692H9.34606C9.42775 22.7423 9.68252 24.6046 10.0813 26.3077H6.01468C5.03344 24.6098 4.42811 22.7211 4.2396 20.7692ZM8.13452 29.0769H10.9038C11.3025 30.1514 11.7691 31.1165 12.2884 31.9763C10.7371 31.2738 9.32888 30.2908 8.13452 29.0769ZM13.889 29.0769H22.1108C20.9658 31.6897 19.4524 33.2308 17.9999 33.2308C16.5474 33.2308 15.0327 31.6897 13.889 29.0769ZM25.0961 29.0769H27.8653C26.6709 30.2908 25.2627 31.2738 23.7114 31.9763C24.2307 31.1178 24.6973 30.1528 25.0961 29.0769Z" fill="url(#paint0_linear_33_3225)"/>
<defs>
<linearGradient id="paint0_linear_33_3225" x1="36.6206" y1="36" x2="0.929043" y2="34.8951" gradientUnits="userSpaceOnUse">
<stop stop-color="#FD297B"/>
<stop offset="1" stop-color="#FF5864"/>
</linearGradient>
</defs>
</svg>
