<svg width="75" height="75" viewBox="0 0 75 75" fill="none" xmlns="http://www.w3.org/2000/svg">
<path d="M33.7781 2.3366C36.0537 0.907966 38.9463 0.907966 41.2219 2.3366L45.1244 4.78657C46.2182 5.47327 47.4807 5.84397 48.7722 5.85765L53.3797 5.90645C56.0665 5.93491 58.4998 7.49874 59.6418 9.93088L61.6003 14.1018C62.1492 15.2708 63.0109 16.2652 64.0899 16.975L67.9396 19.507C70.1845 20.9835 71.3861 23.6147 71.0319 26.2782L70.4245 30.8457C70.2542 32.126 70.4415 33.4284 70.9655 34.6088L72.8352 38.8203C73.9254 41.276 73.5137 44.1391 71.7758 46.1883L68.7954 49.7024C67.96 50.6874 67.4134 51.8843 67.2161 53.1606L66.5121 57.7143C66.1015 60.3697 64.2073 62.5557 61.6374 63.34L57.2302 64.6849C55.995 65.0618 54.8881 65.7732 54.032 66.7403L50.9778 70.1905C49.1969 72.2023 46.4215 73.0173 43.8355 72.2876L39.4009 71.0363C38.1579 70.6856 36.8421 70.6856 35.5991 71.0363L31.1645 72.2876C28.5785 73.0173 25.8031 72.2023 24.0222 70.1905L20.968 66.7403C20.1119 65.7732 19.005 65.0618 17.7698 64.6849L13.3626 63.34C10.7927 62.5557 8.89848 60.3697 8.48794 57.7143L7.78392 53.1606C7.58659 51.8843 7.03999 50.6874 6.20461 49.7024L3.22419 46.1883C1.48624 44.1391 1.07459 41.276 2.16483 38.8203L4.03448 34.6088C4.55852 33.4284 4.74578 32.126 4.57553 30.8457L3.96811 26.2782C3.61391 23.6147 4.81552 20.9835 7.06038 19.507L10.9101 16.975C11.9891 16.2652 12.8508 15.2708 13.3997 14.1018L15.3582 9.93088C16.5002 7.49874 18.9335 5.93491 21.6203 5.90645L26.2278 5.85765C27.5193 5.84397 28.7818 5.47327 29.8756 4.78657L33.7781 2.3366Z" fill="url(#paint0_linear_384_53)"/>
<path d="M38 24C35.0837 24.0034 32.2878 25.1635 30.2256 27.2256C28.1635 29.2878 27.0035 32.0837 27 35C26.9965 37.3832 27.775 39.7018 29.216 41.6C29.216 41.6 29.516 41.995 29.565 42.052L38 52L46.439 42.047C46.483 41.994 46.784 41.6 46.784 41.6L46.785 41.597C48.2253 39.6996 49.0034 37.3821 49 35C48.9966 32.0837 47.8365 29.2878 45.7744 27.2256C43.7122 25.1635 40.9163 24.0034 38 24ZM38 39C37.2089 39 36.4355 38.7654 35.7777 38.3259C35.1199 37.8864 34.6072 37.2616 34.3045 36.5307C34.0017 35.7998 33.9225 34.9956 34.0769 34.2196C34.2312 33.4437 34.6122 32.731 35.1716 32.1716C35.731 31.6122 36.4437 31.2312 37.2197 31.0769C37.9956 30.9225 38.7998 31.0017 39.5307 31.3045C40.2616 31.6072 40.8864 32.1199 41.3259 32.7777C41.7654 33.4355 42 34.2089 42 35C41.9987 36.0605 41.5768 37.0771 40.827 37.827C40.0771 38.5768 39.0605 38.9987 38 39Z" fill="white"/>
<defs>
<linearGradient id="paint0_linear_384_53" x1="79.5259" y1="75" x2="-1.0146" y2="72.2989" gradientUnits="userSpaceOnUse">
<stop stop-color="#FD297B"/>
<stop offset="1" stop-color="#FF5864"/>
</linearGradient>
</defs>
</svg>
