<svg width="26" height="20" viewBox="0 0 26 20" fill="none" xmlns="http://www.w3.org/2000/svg">
<path d="M24.0695 0.502969C23.9616 0.491849 23.8528 0.491849 23.7449 0.502969H1.57561C1.43352 0.505159 1.29238 0.526463 1.15598 0.56631L12.5969 11.9598L24.0695 0.502969Z" fill="url(#paint0_linear_19_1847)"/>
<path d="M25.2413 1.604L13.7133 13.0845C13.4166 13.3795 13.0153 13.545 12.5969 13.545C12.1786 13.545 11.7772 13.3795 11.4805 13.0845L0.0554233 1.6911C0.0203003 1.82019 0.00167749 1.95321 0 2.08698V17.9222C0 18.3422 0.166835 18.745 0.463803 19.0419C0.760771 19.3389 1.16355 19.5057 1.58352 19.5057H23.7528C24.1728 19.5057 24.5756 19.3389 24.8726 19.0419C25.1695 18.745 25.3364 18.3422 25.3364 17.9222V2.08698C25.3301 1.92202 25.298 1.75906 25.2413 1.604ZM2.66824 17.9222H1.56769V16.79L7.32379 11.0814L8.44017 12.1978L2.66824 17.9222ZM23.737 17.9222H22.6285L16.8566 12.1978L17.973 11.0814L23.7291 16.79L23.737 17.9222Z" fill="url(#paint1_linear_19_1847)"/>
<defs>
<linearGradient id="paint0_linear_19_1847" x1="25.4523" y1="11.9598" x2="0.928492" y2="10.3161" gradientUnits="userSpaceOnUse">
<stop stop-color="#FD297B"/>
<stop offset="1" stop-color="#FF5864"/>
</linearGradient>
<linearGradient id="paint1_linear_19_1847" x1="26.8653" y1="19.5057" x2="-0.312125" y2="18.2158" gradientUnits="userSpaceOnUse">
<stop stop-color="#FD297B"/>
<stop offset="1" stop-color="#FF5864"/>
</linearGradient>
</defs>
</svg>
