<svg width="24" height="24" viewBox="0 0 24 24" fill="none" xmlns="http://www.w3.org/2000/svg">
<path d="M23 12C22.9994 9.0828 21.8403 6.28524 19.7775 4.22247C17.7148 2.1597 14.9172 1.00058 12 1V3.2C13.7403 3.2004 15.4414 3.7166 16.8885 4.68339C18.3356 5.65018 19.4636 7.02418 20.1301 8.6318C20.5724 9.69964 20.8001 10.8442 20.8 12H23ZM1 9.8V4.3C1 4.00826 1.11589 3.72847 1.32218 3.52218C1.52847 3.31589 1.80826 3.2 2.1 3.2H7.6C7.89174 3.2 8.17153 3.31589 8.37782 3.52218C8.58411 3.72847 8.7 4.00826 8.7 4.3V8.7C8.7 8.99174 8.58411 9.27153 8.37782 9.47782C8.17153 9.68411 7.89174 9.8 7.6 9.8H5.4C5.4 12.1339 6.32714 14.3722 7.97746 16.0225C9.62778 17.6729 11.8661 18.6 14.2 18.6V16.4C14.2 16.1083 14.3159 15.8285 14.5222 15.6222C14.7285 15.4159 15.0083 15.3 15.3 15.3H19.7C19.9917 15.3 20.2715 15.4159 20.4778 15.6222C20.6841 15.8285 20.8 16.1083 20.8 16.4V21.9C20.8 22.1917 20.6841 22.4715 20.4778 22.6778C20.2715 22.8841 19.9917 23 19.7 23H14.2C6.9103 23 1 17.0897 1 9.8Z" fill="url(#paint0_linear_19_1856)"/>
<path d="M18.0973 9.4743C18.4293 10.2749 18.6002 11.1332 18.6 11.9999H16.62C16.6201 11.3932 16.5007 10.7923 16.2686 10.2317C16.0365 9.67114 15.6962 9.16178 15.2672 8.73275C14.8381 8.30371 14.3288 7.96341 13.7682 7.73128C13.2076 7.49916 12.6067 7.37976 12 7.3799V5.3999C13.3053 5.39997 14.5813 5.7871 15.6666 6.51233C16.7519 7.23757 17.5978 8.26834 18.0973 9.4743Z" fill="url(#paint1_linear_19_1856)"/>
<defs>
<linearGradient id="paint0_linear_19_1856" x1="24.3276" y1="23" x2="0.702383" y2="22.2077" gradientUnits="userSpaceOnUse">
<stop stop-color="#FD297B"/>
<stop offset="1" stop-color="#FF5864"/>
</linearGradient>
<linearGradient id="paint1_linear_19_1856" x1="18.9983" y1="11.9999" x2="11.9107" y2="11.7622" gradientUnits="userSpaceOnUse">
<stop stop-color="#FD297B"/>
<stop offset="1" stop-color="#FF5864"/>
</linearGradient>
</defs>
</svg>
