<svg width="22" height="22" viewBox="0 0 22 22" fill="none" xmlns="http://www.w3.org/2000/svg">
<path d="M13.796 4.58329C14.6913 4.75798 15.5142 5.19586 16.1592 5.8409C16.8042 6.48594 17.2421 7.30879 17.4168 8.20413M13.796 0.916626C15.6561 1.12328 17.3908 1.95629 18.715 3.27888C20.0393 4.60148 20.8745 6.33505 21.0835 8.19496M20.1668 15.51V18.26C20.1678 18.5153 20.1156 18.7679 20.0133 19.0019C19.911 19.2358 19.761 19.4457 19.5729 19.6183C19.3848 19.7909 19.1627 19.9223 18.9208 20.0041C18.679 20.0859 18.4227 20.1163 18.1685 20.0933C15.3477 19.7868 12.6382 18.8229 10.2576 17.2791C8.04282 15.8717 6.16503 13.994 4.75764 11.7791C3.20846 9.38773 2.24436 6.66504 1.94348 3.83163C1.92057 3.57814 1.95069 3.32266 2.03193 3.08145C2.11317 2.84024 2.24375 2.61859 2.41534 2.43061C2.58694 2.24263 2.7958 2.09244 3.02862 1.9896C3.26144 1.88677 3.51312 1.83353 3.76764 1.83329H6.51764C6.96251 1.82891 7.39379 1.98645 7.73109 2.27653C8.0684 2.56661 8.28871 2.96945 8.35098 3.40996C8.46705 4.29002 8.68231 5.15413 8.99264 5.98579C9.11597 6.31389 9.14267 6.67046 9.06956 7.01327C8.99645 7.35607 8.8266 7.67073 8.58014 7.91996L7.41598 9.08413C8.7209 11.379 10.6211 13.2792 12.916 14.5841L14.0801 13.42C14.3294 13.1735 14.644 13.0037 14.9868 12.9305C15.3296 12.8574 15.6862 12.8841 16.0143 13.0075C16.846 13.3178 17.7101 13.5331 18.5901 13.6491C19.0354 13.7119 19.4421 13.9362 19.7328 14.2793C20.0235 14.6224 20.178 15.0604 20.1668 15.51Z" stroke="#8B95A6" stroke-width="1.5" stroke-linecap="round" stroke-linejoin="round"/>
</svg>
