<svg width="70" height="70" viewBox="0 0 70 70" fill="none" xmlns="http://www.w3.org/2000/svg">
<circle cx="35" cy="35" r="34" fill="white" stroke="url(#paint0_linear_182_53)" stroke-width="2"/>
<path d="M33.725 44.9167H36.2042V43.1459C37.3847 42.9334 38.4 42.473 39.25 41.7646C40.1 41.0563 40.525 40.0056 40.525 38.6125C40.525 37.6209 40.2417 36.7118 39.675 35.8855C39.1083 35.0591 37.975 34.3389 36.275 33.725C34.8583 33.2528 33.8785 32.8396 33.3354 32.4855C32.7924 32.1313 32.5208 31.6473 32.5208 31.0334C32.5208 30.4195 32.7395 29.9355 33.1768 29.5813C33.614 29.2271 34.2454 29.05 35.0708 29.05C35.8264 29.05 36.4167 29.2328 36.8417 29.5983C37.2667 29.9638 37.5736 30.4185 37.7625 30.9625L40.0292 30.0417C39.7694 29.2153 39.2916 28.4952 38.5955 27.8813C37.8994 27.2674 37.1259 26.925 36.275 26.8542V25.0834H33.7958V26.8542C32.6153 27.1139 31.6944 27.6334 31.0333 28.4125C30.3722 29.1917 30.0417 30.0653 30.0417 31.0334C30.0417 32.1431 30.3666 33.0403 31.0163 33.725C31.6661 34.4098 32.6871 35 34.0792 35.4959C35.5667 36.0389 36.5999 36.523 37.1788 36.948C37.7578 37.373 38.0468 37.9278 38.0458 38.6125C38.0458 39.3917 37.7686 39.9645 37.2143 40.331C36.6599 40.6974 35.9926 40.8801 35.2125 40.8792C34.4333 40.8792 33.7425 40.6374 33.1399 40.1539C32.5374 39.6703 32.0949 38.944 31.8125 37.975L29.475 38.8959C29.8056 40.0292 30.3193 40.9444 31.0163 41.6414C31.7133 42.3384 32.6162 42.8163 33.725 43.075V44.9167ZM35 49.1667C33.0403 49.1667 31.1986 48.7946 29.475 48.0504C27.7514 47.3062 26.2521 46.297 24.9771 45.023C23.7021 43.748 22.6929 42.2487 21.9497 40.525C21.2064 38.8014 20.8343 36.9598 20.8333 35C20.8333 33.0403 21.2054 31.1987 21.9497 29.475C22.6939 27.7514 23.703 26.2521 24.9771 24.9771C26.2521 23.7021 27.7514 22.693 29.475 21.9497C31.1986 21.2064 33.0403 20.8343 35 20.8334C36.9597 20.8334 38.8014 21.2055 40.525 21.9497C42.2486 22.6939 43.7479 23.7031 45.0229 24.9771C46.2979 26.2521 47.3075 27.7514 48.0518 29.475C48.796 31.1987 49.1676 33.0403 49.1667 35C49.1667 36.9598 48.7946 38.8014 48.0503 40.525C47.3061 42.2487 46.297 43.748 45.0229 45.023C43.7479 46.298 42.2486 47.3076 40.525 48.0518C38.8014 48.796 36.9597 49.1677 35 49.1667Z" fill="url(#paint1_linear_182_53)"/>
<defs>
<linearGradient id="paint0_linear_182_53" x1="74.2241" y1="70" x2="-0.946963" y2="67.479" gradientUnits="userSpaceOnUse">
<stop stop-color="#FD297B"/>
<stop offset="1" stop-color="#FF5864"/>
</linearGradient>
<linearGradient id="paint1_linear_182_53" x1="50.8764" y1="49.1667" x2="20.45" y2="48.1463" gradientUnits="userSpaceOnUse">
<stop stop-color="#FD297B"/>
<stop offset="1" stop-color="#FF5864"/>
</linearGradient>
</defs>
</svg>
