<svg width="70" height="70" viewBox="0 0 70 70" fill="none" xmlns="http://www.w3.org/2000/svg">
<circle cx="35" cy="35" r="34" fill="white" stroke="url(#paint0_linear_182_52)" stroke-width="2"/>
<path d="M48.7846 42.8798C49.5339 41.3565 49.9074 39.676 49.8737 37.9787C49.84 36.2815 49.4001 34.6171 48.5909 33.1248C47.7817 31.6325 46.6267 30.3559 45.2227 29.4017C43.8186 28.4476 42.2064 27.8438 40.521 27.6409C39.9621 26.3379 39.148 25.1599 38.1267 24.1764C37.1055 23.1929 35.8977 22.4238 34.5746 21.9143C33.2515 21.4048 31.8398 21.1653 30.4227 21.2098C29.0055 21.2544 27.6117 21.5821 26.3232 22.1737C25.0347 22.7653 23.8776 23.6088 22.9201 24.6545C21.9627 25.7002 21.2242 26.927 20.7482 28.2625C20.2722 29.598 20.0683 31.0153 20.1486 32.4309C20.2288 33.8464 20.5915 35.2316 21.2154 36.5048L20.198 40.0668C20.1073 40.3855 20.1033 40.7226 20.1865 41.0433C20.2698 41.3641 20.4372 41.6567 20.6715 41.891C20.9058 42.1253 21.1984 42.2927 21.5192 42.376C21.8399 42.4592 22.177 42.4552 22.4957 42.3645L26.0577 41.3471C27.1326 41.8748 28.2888 42.2174 29.4776 42.3605C30.0444 43.6882 30.8757 44.8865 31.9209 45.8823C32.9661 46.878 34.2033 47.6503 35.5569 48.1521C36.9105 48.6538 38.3521 48.8745 39.7938 48.8006C41.2355 48.7266 42.6471 48.3597 43.9423 47.7221L47.5043 48.7395C47.823 48.8302 48.1601 48.8342 48.4808 48.751C48.8015 48.6677 49.0942 48.5003 49.3285 48.266C49.5628 48.0317 49.7302 47.7391 49.8135 47.4183C49.8967 47.0976 49.8927 46.7605 49.8019 46.4418L48.7846 42.8798ZM46.6251 43.0577L47.6278 46.5653L44.1202 45.5626C43.853 45.4874 43.567 45.5198 43.3233 45.6529C41.3648 46.7185 39.0661 46.9726 36.9221 46.3605C34.778 45.7485 32.9599 44.3193 31.859 42.3804C33.3139 42.2289 34.7218 41.7783 35.9943 41.057C37.2668 40.3356 38.3766 39.3591 39.2539 38.1886C40.1312 37.0181 40.7571 35.679 41.0924 34.2551C41.4277 32.8313 41.4651 31.3536 41.2023 29.9146C42.4755 30.2147 43.6622 30.8045 44.6702 31.6382C45.6781 32.4719 46.48 33.527 47.0135 34.7213C47.547 35.9156 47.7976 37.2169 47.7459 38.524C47.6942 39.831 47.3415 41.1084 46.7154 42.2569C46.5813 42.5016 46.5488 42.7893 46.6251 43.0577Z" fill="url(#paint1_linear_182_52)"/>
<defs>
<linearGradient id="paint0_linear_182_52" x1="74.2241" y1="70" x2="-0.946963" y2="67.479" gradientUnits="userSpaceOnUse">
<stop stop-color="#FD297B"/>
<stop offset="1" stop-color="#FF5864"/>
</linearGradient>
<linearGradient id="paint1_linear_182_52" x1="51.671" y1="48.8145" x2="19.7302" y2="47.6603" gradientUnits="userSpaceOnUse">
<stop stop-color="#FD297B"/>
<stop offset="1" stop-color="#FF5864"/>
</linearGradient>
</defs>
</svg>
