<svg width="36" height="36" viewBox="0 0 36 36" fill="none" xmlns="http://www.w3.org/2000/svg">
<path opacity="0.1" fill-rule="evenodd" clip-rule="evenodd" d="M0 18.0007C0 8.24362 7.90964 0.333984 17.6667 0.333984C27.4237 0.333984 35.3333 8.24362 35.3333 18.0007C35.3333 27.7577 27.4237 35.6673 17.6667 35.6673C7.90964 35.6673 0 27.7577 0 18.0007Z" fill="url(#paint0_linear_19_1810)"/>
<path fill-rule="evenodd" clip-rule="evenodd" d="M17.1375 14.6938L17.1746 15.3051L16.5567 15.2302C14.3077 14.9433 12.3428 13.9702 10.6746 12.3359L9.85898 11.525L9.64891 12.1238C9.20404 13.4587 9.48826 14.8684 10.4151 15.8166C10.9094 16.3406 10.7982 16.4154 9.94549 16.1035C9.64891 16.0037 9.3894 15.9289 9.36468 15.9663C9.27818 16.0536 9.57476 17.1889 9.80955 17.638C10.1308 18.2618 10.7858 18.8731 11.5025 19.2349L12.108 19.5218L11.3913 19.5343C10.6993 19.5343 10.6746 19.5468 10.7487 19.8088C10.9959 20.6197 11.9721 21.4805 13.0596 21.8548L13.8257 22.1168L13.1584 22.516C12.1698 23.0899 11.0082 23.4142 9.84663 23.4392C9.29054 23.4517 8.83331 23.5016 8.83331 23.539C8.83331 23.6638 10.3409 24.3624 11.2183 24.6369C13.8504 25.4478 16.9769 25.0985 19.3248 23.7137C20.9931 22.7281 22.6613 20.7694 23.4398 18.8731C23.86 17.8626 24.2801 16.0162 24.2801 15.1304C24.2801 14.5565 24.3172 14.4817 25.0092 13.7955C25.417 13.3963 25.8001 12.9597 25.8743 12.8349C25.9978 12.5979 25.9855 12.5979 25.3552 12.8099C24.3049 13.1842 24.1566 13.1343 24.6756 12.5729C25.0587 12.1737 25.5159 11.4501 25.5159 11.238C25.5159 11.2006 25.3305 11.263 25.1205 11.3752C24.898 11.5 24.4037 11.6871 24.033 11.7994L23.3657 12.0115L22.7602 11.5998C22.4265 11.3752 21.9569 11.1257 21.7098 11.0509C21.0796 10.8762 20.1157 10.9012 19.5472 11.1008C18.0026 11.6622 17.0263 13.1094 17.1375 14.6938Z" fill="url(#paint1_linear_19_1810)"/>
<defs>
<linearGradient id="paint0_linear_19_1810" x1="37.4655" y1="35.6673" x2="-0.477991" y2="34.3948" gradientUnits="userSpaceOnUse">
<stop stop-color="#FD297B"/>
<stop offset="1" stop-color="#FF5864"/>
</linearGradient>
<linearGradient id="paint1_linear_19_1810" x1="26.9678" y1="25.0674" x2="8.61152" y2="24.3225" gradientUnits="userSpaceOnUse">
<stop stop-color="#FD297B"/>
<stop offset="1" stop-color="#FF5864"/>
</linearGradient>
</defs>
</svg>
