<svg width="36" height="36" viewBox="0 0 36 36" fill="none" xmlns="http://www.w3.org/2000/svg">
<path opacity="0.1" fill-rule="evenodd" clip-rule="evenodd" d="M-0.00390625 18.0007C-0.00390625 8.24362 7.90573 0.333984 17.6628 0.333984C27.4198 0.333984 35.3294 8.24362 35.3294 18.0007C35.3294 27.7577 27.4198 35.6673 17.6628 35.6673C7.90573 35.6673 -0.00390625 27.7577 -0.00390625 18.0007Z" fill="url(#paint0_linear_19_1822)"/>
<path fill-rule="evenodd" clip-rule="evenodd" d="M25.0251 11.9273C25.8359 12.1498 26.4745 12.8054 26.6912 13.638C27.085 15.1469 27.085 18.2952 27.085 18.2952C27.085 18.2952 27.085 21.4434 26.6912 22.9524C26.4745 23.7849 25.8359 24.4405 25.0251 24.6631C23.5556 25.0674 17.6628 25.0674 17.6628 25.0674C17.6628 25.0674 11.7699 25.0674 10.3004 24.6631C9.48952 24.4405 8.85095 23.7849 8.63424 22.9524C8.24054 21.4434 8.24054 18.2952 8.24054 18.2952C8.24054 18.2952 8.24054 15.1469 8.63424 13.638C8.85095 12.8054 9.48952 12.1498 10.3004 11.9273C11.7699 11.5229 17.6628 11.5229 17.6628 11.5229C17.6628 11.5229 23.5556 11.5229 25.0251 11.9273ZM15.8961 15.6451V21.534L20.6072 18.5897L15.8961 15.6451Z" fill="url(#paint1_linear_19_1822)"/>
<defs>
<linearGradient id="paint0_linear_19_1822" x1="37.4616" y1="35.6673" x2="-0.481897" y2="34.3948" gradientUnits="userSpaceOnUse">
<stop stop-color="#FD297B"/>
<stop offset="1" stop-color="#FF5864"/>
</linearGradient>
<linearGradient id="paint1_linear_19_1822" x1="28.2221" y1="25.0674" x2="8.00686" y2="24.1242" gradientUnits="userSpaceOnUse">
<stop stop-color="#FD297B"/>
<stop offset="1" stop-color="#FF5864"/>
</linearGradient>
</defs>
</svg>
